<?xml version="1.0" encoding="utf-8"?>
<!-- Generator: Adobe Illustrator 22.0.1, SVG Export Plug-In . SVG Version: 6.00 Build 0)  -->
<svg version="1.1" id="Layer_1" xmlns="http://www.w3.org/2000/svg" xmlns:xlink="http://www.w3.org/1999/xlink" x="0px" y="0px"
	 viewBox="0 0 512 512" style="enable-background:new 0 0 512 512;" xml:space="preserve">
<style type="text/css">
	.st0{fill:#0366D6;}
	.st1{fill:#7AAFF3;}
</style>
<g>
	<path class="st0" d="M85,133.5c-4.9,0-9.3-2.5-11.8-6.8L34.3,59.3c-2.5-4.3-2.5-9.4,0-13.6c2.5-4.3,6.9-6.8,11.8-6.8h77.8
		c4.9,0,9.3,2.5,11.8,6.8c2.5,4.3,2.5,9.4,0,13.6l-38.9,67.4C94.4,131,90,133.5,85,133.5z"/>
	<path class="st1" d="M123.9,42.4c3.7,0,6.9,1.9,8.8,5.1c1.8,3.2,1.8,7,0,10.1l-38.9,67.4c-1.8,3.2-5.1,5.1-8.8,5.1
		c-3.7,0-6.9-1.9-8.8-5.1L37.4,57.6c-1.8-3.2-1.8-7,0-10.1c1.8-3.2,5.1-5.1,8.8-5.1H123.9 M123.9,35.4H46.1
		c-13.2,0-21.4,14.3-14.8,25.7l38.9,67.4c3.3,5.7,9.1,8.6,14.8,8.6s11.5-2.9,14.8-8.6l38.9-67.4C145.4,49.7,137.1,35.4,123.9,35.4
		L123.9,35.4z"/>
</g>
<g>
	<path class="st0" d="M155.5,301.4c-7.5,0-15.6-6-15.6-15.6V216c0-9.6,8.1-15.6,15.6-15.6c2.7,0,5.3,0.7,7.7,2.1l60.4,36
		c4.9,2.8,7.8,7.9,7.8,13.5c0,5.6-2.9,10.7-7.8,13.5l-60.4,33.8C160.9,300.6,158.2,301.4,155.5,301.4L155.5,301.4z"/>
	<path class="st1" d="M155.5,203.9c2.1,0,4.1,0.5,6,1.6l60.4,36l0,0l0,0c3.8,2.2,6,6.1,6,10.4c0,4.3-2.2,8.2-6,10.4l-60.4,33.8l0,0
		l0,0c-1.9,1.1-3.9,1.6-6,1.6c-5.8,0-12.1-4.6-12.1-12.1V216C143.5,208.5,149.7,203.9,155.5,203.9 M155.5,196.9
		c-10,0-19.1,8-19.1,19.1v69.8c0,11.1,9.1,19.1,19.1,19.1c3.2,0,6.4-0.8,9.5-2.6l60.4-33.8c12.7-7.3,12.7-25.7,0-33l-60.4-36
		C162,197.7,158.7,196.9,155.5,196.9L155.5,196.9z"/>
</g>
<g>
	<path class="st0" d="M155.7,466.5c-7.6,0-15.8-6-15.8-15.8v-70.5c0-9.7,8.2-15.8,15.8-15.8c2.7,0,5.4,0.7,7.8,2.1l61,37.4
		c5,2.9,7.9,8,7.9,13.7c0,5.7-2.9,10.8-7.9,13.6l-61,32.9C161.1,465.8,158.5,466.5,155.7,466.5C155.7,466.5,155.7,466.5,155.7,466.5
		z"/>
	<path class="st1" d="M155.7,368c2.1,0,4.1,0.5,6,1.6l61,37.4l0.1,0l0.1,0c3.8,2.2,6.1,6.2,6.1,10.6c0,4.4-2.3,8.3-6,10.6L162,461.2
		l-0.1,0l-0.1,0c-1.9,1.1-4,1.7-6.1,1.7c-5.9,0-12.3-4.7-12.3-12.3v-70.5C143.5,372.7,149.8,368,155.7,368 M155.7,361
		c-10,0-19.3,8-19.3,19.3v70.5c0,11.2,9.2,19.3,19.3,19.3c3.2,0,6.5-0.8,9.6-2.6l61-33c12.8-7.4,12.8-25.9,0-33.3l-61-37.5
		C162.2,361.8,158.9,361,155.7,361L155.7,361z"/>
</g>
<g>
	<path class="st0" d="M181,118.5c-4.7,0-8.5-3.8-8.5-8.5V58c0-4.7,3.8-8.5,8.5-8.5h290c4.7,0,8.5,3.8,8.5,8.5v52
		c0,4.7-3.8,8.5-8.5,8.5H181z"/>
	<path class="st1" d="M471,53c2.8,0,5,2.2,5,5v52c0,2.8-2.2,5-5,5H181c-2.8,0-5-2.2-5-5V58c0-2.8,2.2-5,5-5H471 M471,46H181
		c-6.6,0-12,5.4-12,12v52c0,6.6,5.4,12,12,12h290c6.6,0,12-5.4,12-12V58C483,51.4,477.6,46,471,46L471,46z"/>
</g>
<g>
	<path class="st0" d="M272,287.5c-4.7,0-8.5-3.8-8.5-8.5v-52c0-4.7,3.8-8.5,8.5-8.5h199c4.7,0,8.5,3.8,8.5,8.5v52
		c0,4.7-3.8,8.5-8.5,8.5H272z"/>
	<path class="st1" d="M471,222c2.8,0,5,2.2,5,5v52c0,2.8-2.2,5-5,5H272c-2.8,0-5-2.2-5-5v-52c0-2.8,2.2-5,5-5H471 M471,215H272
		c-6.6,0-12,5.4-12,12v52c0,6.6,5.4,12,12,12h199c6.6,0,12-5.4,12-12v-52C483,220.4,477.6,215,471,215L471,215z"/>
</g>
<g>
	<path class="st0" d="M272,451.5c-4.7,0-8.5-3.8-8.5-8.5v-52c0-4.7,3.8-8.5,8.5-8.5h199c4.7,0,8.5,3.8,8.5,8.5v52
		c0,4.7-3.8,8.5-8.5,8.5H272z"/>
	<path class="st1" d="M471,386c2.8,0,5,2.2,5,5v52c0,2.8-2.2,5-5,5H272c-2.8,0-5-2.2-5-5v-52c0-2.8,2.2-5,5-5H471 M471,379H272
		c-6.6,0-12,5.4-12,12v52c0,6.6,5.4,12,12,12h199c6.6,0,12-5.4,12-12v-52C483,384.4,477.6,379,471,379L471,379z"/>
</g>
</svg>
