<?xml version="1.0" encoding="utf-8"?>
<!-- Generator: Adobe Illustrator 22.0.1, SVG Export Plug-In . SVG Version: 6.00 Build 0)  -->
<svg version="1.1" id="Layer_1" xmlns="http://www.w3.org/2000/svg" xmlns:xlink="http://www.w3.org/1999/xlink" x="0px" y="0px"
	 viewBox="0 0 512 512" style="enable-background:new 0 0 512 512;" xml:space="preserve">
<style type="text/css">
	.st0{fill:#2986E2;stroke:#1B2F3D;stroke-width:20;stroke-miterlimit:10;}
</style>
<path class="st0" d="M98.9,154.4l38.9-67.4c6.6-11.4-1.6-25.7-14.8-25.7H45.1c-13.2,0-21.4,14.3-14.8,25.7l38.9,67.4
	C75.8,165.9,92.3,165.9,98.9,154.4z"/>
<path class="st0" d="M224.5,235.5l-60.4-36c-12.7-7.3-28.6,1.8-28.6,16.5v69.8c0,14.7,15.9,23.8,28.6,16.5l60.4-33.8
	C237.2,261.2,237.2,242.8,224.5,235.5z"/>
<path class="st0" d="M225.3,383.1l-61-37.5c-12.8-7.4-28.9,1.9-28.9,16.7v70.5c0,14.8,16,24.1,28.9,16.7l61-33
	C238.2,409,238.2,390.5,225.3,383.1z"/>
<path class="st0" d="M480,148H207c-6.6,0-12-5.4-12-12V84c0-6.6,5.4-12,12-12h273c6.6,0,12,5.4,12,12v52
	C492,142.6,486.6,148,480,148z"/>
<path class="st0" d="M480,291H293.1c-6.6,0-12-5.4-12-12v-52c0-6.6,5.4-12,12-12H480c6.6,0,12,5.4,12,12v52
	C492,285.6,486.6,291,480,291z"/>
<path class="st0" d="M480,437H293.1c-6.6,0-12-5.4-12-12v-52c0-6.6,5.4-12,12-12H480c6.6,0,12,5.4,12,12v52
	C492,431.6,486.6,437,480,437z"/>
</svg>
